# xmcd CD database file
#
# Track frame offsets:
#	150
#	18512
#	36095
#	54432
#
# Disc length: 957 seconds
#
# Revision: 1
# Processed by: cddbd v1.5.2PL0 Copyright (c) Steve Scherf et al.
# Submitted via: CDex 1.70beta3
#
DISCID=2903bb04
DTITLE=花＊花 - 愛を少し語ろう
DYEAR=2001
DGENRE=ポップ (一般)
TTITLE0=愛を少し語ろう
TTITLE1=ばんそうこう1枚
TTITLE2=愛を少し語ろう-inst-
TTITLE3=ばんそうこう1枚-inst-
EXTD=YEAR: 2001
EXTT0=
EXTT1=
EXTT2=
EXTT3=
PLAYORDER=
